<svg width="299" height="257" viewBox="0 0 299 257" fill="none" xmlns="http://www.w3.org/2000/svg">
<circle cx="180.964" cy="118.075" r="117.473" fill="#FFFDC3"/>
<g clip-path="url(#clip0_412_1415)">
<path d="M111.368 83.7119C104.884 86.8533 102.177 94.6628 105.316 101.141C108.46 107.631 116.267 110.346 122.751 107.205C129.249 104.056 131.953 96.2487 128.809 89.7588C125.67 83.2806 117.867 80.5633 111.368 83.7119ZM96.412 112.714C93.7166 114.02 91.7217 116.152 90.4803 118.64L75.9044 146.849C75.8611 146.922 75.8293 147.001 75.7875 147.075L75.2501 148.115L75.3011 148.132C73.7764 151.532 73.6536 155.534 75.4031 159.145C76.8665 162.165 79.3621 164.323 82.2418 165.498L82.2298 165.547L82.6187 165.677C82.8366 165.758 83.0584 165.818 83.2803 165.888L107.139 173.634L118.93 200.002L118.949 200.085C119.151 200.929 119.519 201.724 120.031 202.424C120.544 203.123 121.191 203.714 121.934 204.161C122.678 204.608 123.503 204.902 124.361 205.026C125.22 205.15 126.094 205.102 126.934 204.885C127.774 204.667 128.561 204.284 129.251 203.759C129.942 203.233 130.52 202.575 130.953 201.824C131.386 201.072 131.664 200.241 131.772 199.381C131.881 198.52 131.816 197.647 131.583 196.811L123.228 164.599C123.006 163.74 122.61 162.936 122.066 162.235C121.522 161.535 120.841 160.952 120.064 160.523L102.541 150.841L111.136 136.089L124.897 143.777C125.857 144.535 127.012 145.008 128.229 145.141C129.445 145.274 130.675 145.063 131.777 144.53L152.333 134.571C153.117 134.205 153.82 133.687 154.401 133.047C154.983 132.406 155.432 131.657 155.721 130.842C156.011 130.027 156.135 129.163 156.088 128.299C156.04 127.436 155.822 126.59 155.444 125.812C155.067 125.033 154.539 124.338 153.891 123.765C153.243 123.193 152.487 122.755 151.668 122.477C150.849 122.199 149.983 122.086 149.12 122.146C148.257 122.206 147.415 122.436 146.642 122.824L129.9 130.936L111.277 115.243C107.458 111.446 101.546 110.226 96.412 112.714ZM71.4846 180.993C57.7684 187.639 51.9714 204.332 58.6168 218.048C65.2622 231.764 81.9555 237.561 95.6718 230.916C109.388 224.271 115.185 207.577 108.54 193.861C101.894 180.145 85.2008 174.348 71.4846 180.993ZM147.837 144.001C134.121 150.647 128.324 167.34 134.969 181.056C141.615 194.772 158.308 200.569 172.024 193.924C185.74 187.279 191.537 170.585 184.892 156.869C178.247 143.153 161.553 137.356 147.837 144.001ZM77.1757 192.74C84.5436 189.17 93.2233 192.184 96.793 199.552C100.363 206.92 97.3486 215.6 89.9807 219.169C82.6127 222.739 73.933 219.725 70.3633 212.357C66.7936 204.989 69.8078 196.309 77.1757 192.74ZM153.528 155.748C160.896 152.178 169.576 155.192 173.145 162.56C176.715 169.928 173.701 178.608 166.333 182.177C158.965 185.747 150.285 182.733 146.716 175.365C143.146 167.997 146.16 159.317 153.528 155.748Z" fill="#F6B41D"/>
</g>
<path d="M256.146 118.074C256.146 113.717 253.728 109.79 250.019 107.768C251.422 103.614 250.412 98.8603 247.223 95.6713C244.034 92.4823 239.282 91.4752 235.126 92.8754C233.104 89.1664 229.177 86.748 224.82 86.748C220.462 86.748 216.536 89.1664 214.514 92.8754C210.357 91.4705 205.604 92.4823 202.417 95.6713C199.228 98.8603 198.216 103.614 199.621 107.768C195.912 109.79 193.494 113.717 193.494 118.074C193.494 122.432 195.912 126.358 199.621 128.381C198.218 132.534 199.228 137.288 202.417 140.477C205.607 143.666 210.363 144.678 214.514 143.273C216.536 146.982 220.462 149.4 224.82 149.4C229.177 149.4 233.104 146.982 235.126 143.273C239.282 144.678 244.034 143.665 247.223 140.477C250.412 137.288 251.424 132.534 250.019 128.381C253.728 126.358 256.146 122.432 256.146 118.074ZM238.229 112.688L222.566 128.351C222.107 128.81 221.506 129.038 220.904 129.038C220.303 129.038 219.701 128.81 219.242 128.351L211.411 120.519C210.493 119.603 210.493 118.113 211.411 117.197C212.329 116.279 213.815 116.279 214.733 117.197L220.902 123.367L234.904 109.366C235.822 108.448 237.308 108.448 238.226 109.366C239.145 110.282 239.145 111.77 238.229 112.688Z" fill="#2AB86B"/>
<defs>
<clipPath id="clip0_412_1415">
<rect width="156.631" height="156.631" fill="white" transform="translate(0.0551758 115.883) rotate(-25.8498)"/>
</clipPath>
</defs>
</svg>
